<svg width="20" height="24" viewBox="0 0 20 24" fill="none" xmlns="http://www.w3.org/2000/svg">
<path d="M0 5.98956H20V19.5784C19.997 22.0192 18.024 23.997 15.5894 24H4.41084C1.976 23.997 0.00296932 22.0192 0 19.5787V5.98956ZM17.9145 8.08019H2.08554V19.5784C2.08729 20.8651 3.12732 21.9076 4.41068 21.9094H15.5892C16.8727 21.9076 17.9127 20.865 17.9145 19.5785V8.08019ZM15.0261 10.0244H12.9405V5.03831C12.9405 3.41034 11.624 2.09058 9.99997 2.09058C8.37591 2.09058 7.0594 3.41034 7.0594 5.03831V10.0244H4.97396V5.03831C4.97396 2.25574 7.22421 0 10.0001 0C12.7759 0 15.0261 2.25574 15.0261 5.03835L15.0261 10.0244Z" fill="white"/>
</svg>
