<svg width="16" height="39" viewBox="0 0 16 39" fill="none" xmlns="http://www.w3.org/2000/svg">
<mask id="path-1-inside-1_408_139" fill="white">
<path fill-rule="evenodd" clip-rule="evenodd" d="M1.5005 0.402425C0.065623 1.23085 -0.426002 3.06562 0.402425 4.5005L9.04955 19.4778L0.402439 34.455C-0.425988 35.8899 0.0656375 37.7246 1.50052 38.5531C2.93539 39.3815 4.77016 38.8899 5.59859 37.455L15.0986 21.0005C15.3761 20.5199 15.5055 19.9943 15.5009 19.4768C15.5051 18.9599 15.3757 18.435 15.0986 17.955L5.59858 1.5005C4.77015 0.065623 2.93538 -0.426002 1.5005 0.402425Z"/>
</mask>
<path fill-rule="evenodd" clip-rule="evenodd" d="M1.5005 0.402425C0.065623 1.23085 -0.426002 3.06562 0.402425 4.5005L9.04955 19.4778L0.402439 34.455C-0.425988 35.8899 0.0656375 37.7246 1.50052 38.5531C2.93539 39.3815 4.77016 38.8899 5.59859 37.455L15.0986 21.0005C15.3761 20.5199 15.5055 19.9943 15.5009 19.4768C15.5051 18.9599 15.3757 18.435 15.0986 17.955L5.59858 1.5005C4.77015 0.065623 2.93538 -0.426002 1.5005 0.402425Z" fill="white"/>
<path d="M0.402425 4.5005L-0.463601 5.0005H-0.463601L0.402425 4.5005ZM1.5005 0.402425L2.0005 1.26845L1.5005 0.402425ZM9.04955 19.4778L9.91557 19.9778L10.2042 19.4778L9.91557 18.9778L9.04955 19.4778ZM0.402439 34.455L1.26846 34.955H1.26846L0.402439 34.455ZM1.50052 38.5531L2.00052 37.687H2.00051L1.50052 38.5531ZM5.59859 37.455L4.73257 36.955H4.73257L5.59859 37.455ZM15.0986 21.0005L14.2326 20.5005L15.0986 21.0005ZM15.5009 19.4768L14.5009 19.4686L14.5009 19.4771L14.5009 19.4856L15.5009 19.4768ZM15.0986 17.955L15.9646 17.455L15.0986 17.955ZM5.59858 1.5005L4.73255 2.0005L4.73255 2.0005L5.59858 1.5005ZM1.26845 4.0005C0.716165 3.04392 1.04392 1.82073 2.0005 1.26845L1.0005 -0.463601C-0.91267 0.640969 -1.56817 3.08733 -0.463601 5.0005L1.26845 4.0005ZM9.91557 18.9778L1.26845 4.0005L-0.463601 5.0005L8.18352 19.9778L9.91557 18.9778ZM1.26846 34.955L9.91557 19.9778L8.18352 18.9778L-0.463586 33.955L1.26846 34.955ZM2.00051 37.687C1.04393 37.1348 0.71618 35.9116 1.26846 34.955L-0.463586 33.955C-1.56816 35.8682 -0.912655 38.3145 1.00052 39.4191L2.00051 37.687ZM4.73257 36.955C4.18028 37.9116 2.9571 38.2393 2.00052 37.687L1.00052 39.4191C2.91368 40.5237 5.36005 39.8682 6.46462 37.955L4.73257 36.955ZM14.2326 20.5005L4.73257 36.955L6.46462 37.955L15.9646 21.5005L14.2326 20.5005ZM14.5009 19.4856C14.504 19.8295 14.4184 20.1786 14.2326 20.5005L15.9646 21.5005C16.3338 20.8611 16.507 20.1591 16.5009 19.4679L14.5009 19.4856ZM14.2326 18.455C14.4181 18.7764 14.5038 19.1251 14.5009 19.4686L16.5009 19.485C16.5065 18.7946 16.3333 18.0936 15.9646 17.455L14.2326 18.455ZM4.73255 2.0005L14.2326 18.455L15.9646 17.455L6.4646 1.0005L4.73255 2.0005ZM2.0005 1.26845C2.95709 0.716165 4.18027 1.04392 4.73255 2.0005L6.4646 1.0005C5.36003 -0.91267 2.91367 -1.56817 1.0005 -0.463601L2.0005 1.26845Z" fill="black" mask="url(#path-1-inside-1_408_139)"/>
</svg>
