<svg width="16" height="39" viewBox="0 0 16 39" fill="none" xmlns="http://www.w3.org/2000/svg">
<mask id="path-1-inside-1_408_142" fill="white">
<path fill-rule="evenodd" clip-rule="evenodd" d="M14.0005 0.402425C15.4354 1.23085 15.927 3.06562 15.0986 4.5005L6.45143 19.4778L15.0985 34.455C15.927 35.8899 15.4353 37.7246 14.0005 38.5531C12.5656 39.3815 10.7308 38.8899 9.90238 37.455L0.402384 21.0005C0.12488 20.5199 -0.00450134 19.9943 7.62979e-05 19.4768C-0.00416851 18.9599 0.125237 18.435 0.4024 17.955L9.9024 1.5005C10.7308 0.065623 12.5656 -0.426002 14.0005 0.402425Z"/>
</mask>
<path fill-rule="evenodd" clip-rule="evenodd" d="M14.0005 0.402425C15.4354 1.23085 15.927 3.06562 15.0986 4.5005L6.45143 19.4778L15.0985 34.455C15.927 35.8899 15.4353 37.7246 14.0005 38.5531C12.5656 39.3815 10.7308 38.8899 9.90238 37.455L0.402384 21.0005C0.12488 20.5199 -0.00450134 19.9943 7.62979e-05 19.4768C-0.00416851 18.9599 0.125237 18.435 0.4024 17.955L9.9024 1.5005C10.7308 0.065623 12.5656 -0.426002 14.0005 0.402425Z" fill="white"/>
<path d="M15.0986 4.5005L15.9646 5.0005H15.9646L15.0986 4.5005ZM14.0005 0.402425L13.5005 1.26845L14.0005 0.402425ZM6.45143 19.4778L5.5854 19.9778L5.29673 19.4778L5.5854 18.9778L6.45143 19.4778ZM15.0985 34.455L14.2325 34.955H14.2325L15.0985 34.455ZM14.0005 38.5531L13.5005 37.687H13.5005L14.0005 38.5531ZM9.90238 37.455L10.7684 36.955H10.7684L9.90238 37.455ZM0.402384 21.0005L1.26841 20.5005L0.402384 21.0005ZM7.62979e-05 19.4768L1.00004 19.4686L1.00011 19.4771L1.00004 19.4856L7.62979e-05 19.4768ZM0.4024 17.955L-0.463626 17.455L0.4024 17.955ZM9.9024 1.5005L10.7684 2.0005L10.7684 2.0005L9.9024 1.5005ZM14.2325 4.0005C14.7848 3.04392 14.4571 1.82073 13.5005 1.26845L14.5005 -0.463601C16.4136 0.640969 17.0691 3.08733 15.9646 5.0005L14.2325 4.0005ZM5.5854 18.9778L14.2325 4.0005L15.9646 5.0005L7.31746 19.9778L5.5854 18.9778ZM14.2325 34.955L5.5854 19.9778L7.31746 18.9778L15.9646 33.955L14.2325 34.955ZM13.5005 37.687C14.457 37.1348 14.7848 35.9116 14.2325 34.955L15.9646 33.955C17.0691 35.8682 16.4136 38.3145 14.5005 39.4191L13.5005 37.687ZM10.7684 36.955C11.3207 37.9116 12.5439 38.2393 13.5005 37.687L14.5005 39.4191C12.5873 40.5237 10.1409 39.8682 9.03636 37.955L10.7684 36.955ZM1.26841 20.5005L10.7684 36.955L9.03636 37.955L-0.463642 21.5005L1.26841 20.5005ZM1.00004 19.4856C0.996995 19.8295 1.08259 20.1786 1.26841 20.5005L-0.463641 21.5005C-0.832829 20.8611 -1.006 20.1591 -0.999886 19.4679L1.00004 19.4856ZM1.26843 18.455C1.08283 18.7764 0.997222 19.1251 1.00004 19.4686L-0.999889 19.485C-1.00556 18.7946 -0.832357 18.0936 -0.463626 17.455L1.26843 18.455ZM10.7684 2.0005L1.26842 18.455L-0.463626 17.455L9.03637 1.0005L10.7684 2.0005ZM13.5005 1.26845C12.5439 0.716165 11.3207 1.04392 10.7684 2.0005L9.03637 1.0005C10.1409 -0.91267 12.5873 -1.56817 14.5005 -0.463601L13.5005 1.26845Z" fill="black" mask="url(#path-1-inside-1_408_142)"/>
</svg>
